<svg xmlns="http://www.w3.org/2000/svg" xmlns:xlink="http://www.w3.org/1999/xlink" version="1.1" width="256" height="256" viewBox="0 0 256 256" xml:space="preserve">
<g style="stroke: none; stroke-width: 0; stroke-dasharray: none; stroke-linecap: butt; stroke-linejoin: miter; stroke-miterlimit: 10; fill: none; fill-rule: nonzero; opacity: 1;" transform="translate(1.4065934065934016 1.4065934065934016) scale(2.81 2.81)">
	<path d="M 67.631 90 c -2.579 0 -5.154 -0.559 -7.56 -1.682 C 33.65 75.994 14.005 56.349 1.682 29.929 c -2.338 -5.014 -2.235 -10.755 0.285 -15.75 L 6.7 4.796 c 1.371 -2.719 4.001 -4.499 7.035 -4.763 c 3.041 -0.259 5.932 1.036 7.752 3.478 l 10.558 14.164 c 2.064 2.769 2.3 6.502 0.6 9.508 l -2.325 4.114 c -0.787 1.392 -0.825 3.104 -0.1 4.467 c 5.535 10.399 13.615 18.479 24.015 24.015 c 1.364 0.726 3.077 0.686 4.467 -0.1 l 4.114 -2.326 c 3.006 -1.696 6.738 -1.464 9.509 0.601 l 14.163 10.559 c 2.441 1.82 3.742 4.717 3.478 7.751 s -2.044 5.663 -4.762 7.035 l -9.383 4.734 C 73.224 89.343 70.424 90 67.631 90 z M 14.5 3.999 c -0.139 0 -0.278 0.006 -0.418 0.018 c -1.643 0.143 -3.067 1.107 -3.81 2.58 L 5.538 15.98 c -1.935 3.836 -2.022 8.419 -0.231 12.259 c 11.915 25.546 30.909 44.539 56.455 56.455 c 3.838 1.792 8.422 1.706 12.259 -0.231 l 9.382 -4.733 c 1.472 -0.742 2.436 -2.168 2.579 -3.811 c 0.144 -1.642 -0.561 -3.212 -1.884 -4.198 L 69.935 61.161 c -1.501 -1.119 -3.525 -1.245 -5.151 -0.325 l -4.114 2.326 c -2.612 1.475 -5.719 1.53 -8.315 0.148 c -11.114 -5.917 -19.75 -14.553 -25.666 -25.667 c -1.382 -2.597 -1.326 -5.705 0.148 -8.314 l 2.325 -4.114 c 0.921 -1.629 0.793 -3.65 -0.325 -5.15 L 18.28 5.901 C 17.378 4.691 15.988 3.999 14.5 3.999 z" style="stroke: none; stroke-width: 1; stroke-dasharray: none; stroke-linecap: butt; stroke-linejoin: miter; stroke-miterlimit: 10; fill: rgb(0,0,0); fill-rule: nonzero; opacity: 1;" transform=" matrix(1 0 0 1 0 0) " stroke-linecap="round"/>
</g>
</svg>